<svg xmlns="http://www.w3.org/2000/svg" viewBox="0 0 123.63 27"><defs><style>.cls-1{fill:#0cc482;}</style></defs><title>star </title><g id="Layer_2" data-name="Layer 2"><g id="Layer_1-2" data-name="Layer 1"><polygon class="cls-1" points="14.19 0 18.58 8.89 28.39 10.31 21.29 17.23 22.96 27 14.19 22.38 5.42 27 7.1 17.23 0 10.31 9.81 8.89 14.19 0"/><polygon class="cls-1" points="45.94 0 50.33 8.89 60.13 10.31 53.04 17.23 54.71 27 45.94 22.38 37.17 27 38.85 17.23 31.75 10.31 41.56 8.89 45.94 0"/><polygon class="cls-1" points="77.69 0 82.08 8.89 91.89 10.31 84.79 17.23 86.46 27 77.69 22.38 68.92 27 70.6 17.23 63.5 10.31 73.31 8.89 77.69 0"/><polygon class="cls-1" points="109.44 0 113.83 8.89 123.64 10.31 116.54 17.23 118.21 27 109.44 22.38 100.67 27 102.35 17.23 95.25 10.31 105.06 8.89 109.44 0"/></g></g></svg>